<?xml version="1.0" standalone="no"?>
<!DOCTYPE svg PUBLIC "-//W3C//DTD SVG 20010904//EN"
 "http://www.w3.org/TR/2001/REC-SVG-20010904/DTD/svg10.dtd">
<svg version="1.0" xmlns="http://www.w3.org/2000/svg"
 width="153.000000pt" height="159.000000pt" viewBox="0 0 153.000000 159.000000"
 preserveAspectRatio="xMidYMid meet">

<g transform="translate(0.000000,159.000000) scale(0.100000,-0.100000)"
fill="#000000" stroke="none">
<path d="M643 1455 c-150 -42 -228 -99 -373 -273 -104 -124 -125 -185 -124
-357 0 -66 5 -138 12 -161 12 -41 54 -109 94 -154 13 -14 20 -21 16 -16 -5 6
-8 18 -8 28 0 10 -4 18 -9 18 -5 0 -11 12 -14 27 -4 16 -10 48 -15 73 -6 25
-17 68 -26 95 -21 66 -20 124 4 213 23 87 97 240 122 253 10 5 18 16 18 24 0
8 4 15 10 15 5 0 22 12 38 28 82 77 127 103 215 123 133 30 371 20 418 -17 8
-6 33 -21 57 -33 61 -31 137 -99 137 -122 0 -5 3 -8 6 -6 7 3 39 -29 39 -40 0
-5 9 -19 20 -31 12 -12 18 -22 14 -22 -4 0 1 -9 11 -20 37 -41 65 -154 65
-266 0 -134 -40 -304 -71 -304 -5 0 -9 -6 -9 -12 0 -7 -23 -38 -51 -68 -27
-30 -60 -67 -72 -81 -27 -32 -104 -72 -123 -65 -8 3 -13 2 -10 -3 8 -13 -67
-42 -162 -62 -85 -18 -93 -18 -148 7 -16 7 -40 11 -52 7 -44 -11 -155 26 -217
73 -33 25 -59 49 -58 53 1 5 -5 7 -15 5 -11 -3 -26 8 -42 30 -14 19 -29 31
-34 28 -5 -3 -7 2 -3 11 4 11 1 17 -9 17 -23 0 -3 -30 79 -113 78 -80 170
-132 282 -162 75 -19 116 -19 213 1 120 24 234 84 313 164 128 130 185 223
213 347 29 129 14 270 -38 371 -23 45 -141 189 -195 239 -129 118 -366 181
-518 138z"/>
<path d="M750 1355 c-174 -29 -248 -57 -313 -119 -22 -20 -44 -33 -50 -29 -7
3 -9 3 -5 -1 3 -4 -1 -16 -10 -26 -35 -39 -41 -50 -58 -102 -10 -29 -26 -62
-36 -72 -22 -24 -19 -7 -22 -151 -2 -111 8 -203 23 -215 6 -5 31 -55 76 -152
15 -32 31 -58 36 -58 5 0 9 -7 9 -15 0 -9 6 -12 15 -9 8 4 15 2 15 -4 0 -5 21
-15 48 -23 41 -11 96 -41 112 -60 13 -16 77 -19 95 -4 20 14 20 14 -1 15 -11
0 -56 18 -100 39 -118 57 -203 140 -257 250 l-41 86 -1 130 c0 123 2 133 29
188 33 68 126 172 194 217 127 84 348 95 498 24 129 -61 217 -182 254 -351 19
-87 19 -88 -1 -177 -25 -111 -62 -178 -145 -260 -101 -100 -220 -154 -349
-157 l-60 -2 70 -8 c75 -8 162 -2 171 12 3 5 14 9 25 9 13 0 18 4 13 12 -5 8
-2 9 9 5 10 -3 17 -3 17 1 0 4 22 16 49 27 27 10 49 23 48 29 -1 6 4 10 10 11
19 0 132 126 149 165 21 47 54 204 54 254 0 52 -67 249 -106 309 -16 25 -40
52 -54 60 -14 9 -37 27 -52 41 -15 14 -29 26 -31 26 -3 0 -31 16 -63 35 -34
21 -65 33 -76 29 -9 -3 -38 4 -64 15 -26 12 -47 21 -48 20 0 -1 -35 -7 -76
-14z"/>
<path d="M947 919 c-16 -4 -50 -28 -77 -53 -27 -25 -58 -46 -70 -46 -33 0 -88
27 -132 65 -60 50 -118 47 -118 -7 0 -23 12 -41 50 -77 44 -41 49 -44 43 -21
-4 14 -18 36 -33 50 -15 14 -29 35 -32 48 -5 19 -2 22 23 22 26 0 34 -9 30
-33 -1 -5 4 -5 10 -1 8 4 9 -1 4 -17 -5 -19 -4 -21 5 -9 8 10 13 11 16 4 3 -7
14 -10 24 -7 19 5 21 2 24 -35 2 -19 27 -32 62 -32 31 0 76 28 143 89 19 17
41 31 48 31 7 0 13 4 13 10 0 5 7 7 15 4 21 -8 19 3 -2 14 -10 5 -31 6 -46 1z"/>
<path d="M992 882 c4 -16 -145 -170 -185 -191 -23 -12 -30 -11 -72 9 -56 27
-67 22 -25 -14 42 -35 87 -34 131 2 48 38 169 160 169 169 0 5 -5 15 -11 23
-7 10 -9 11 -7 2z"/>
<path d="M660 740 c0 -5 5 -10 10 -10 6 0 10 5 10 10 0 6 -4 10 -10 10 -5 0
-10 -4 -10 -10z"/>
</g>
</svg>
