<?xml version="1.0" standalone="no"?>
<!DOCTYPE svg PUBLIC "-//W3C//DTD SVG 20010904//EN"
 "http://www.w3.org/TR/2001/REC-SVG-20010904/DTD/svg10.dtd">
<svg version="1.0" xmlns="http://www.w3.org/2000/svg"
 width="217.000000pt" height="218.000000pt" viewBox="0 0 217.000000 218.000000"
 preserveAspectRatio="xMidYMid meet">

<g transform="translate(0.000000,218.000000) scale(0.100000,-0.100000)"
fill="#000000" stroke="none">
<path d="M924 2066 c-17 -7 -50 -17 -73 -21 -45 -8 -175 -68 -253 -118 -54
-34 -52 -31 -38 -58 14 -26 48 -24 91 5 39 27 122 62 238 103 69 24 83 25 220
21 134 -4 243 -21 306 -48 61 -26 116 -53 164 -80 59 -33 101 -39 101 -14 0
27 -20 53 -53 70 -18 9 -43 26 -57 39 -14 12 -45 29 -70 37 -71 25 -101 35
-160 54 -73 25 -368 32 -416 10z"/>
<path d="M1015 1720 c-105 -16 -229 -67 -284 -118 -11 -9 -31 -25 -45 -35 -32
-22 -131 -154 -141 -187 -4 -14 -15 -41 -25 -60 -50 -96 -41 -355 18 -490 10
-25 45 -78 78 -118 67 -85 183 -167 280 -200 94 -32 220 -46 290 -32 33 7 77
16 99 20 73 14 125 39 200 96 41 30 75 59 75 64 0 5 13 21 30 36 16 16 35 41
41 56 6 15 15 28 19 28 15 0 60 112 75 184 26 128 17 269 -23 357 -11 25 -24
57 -27 72 -4 15 -13 27 -21 27 -8 0 -14 4 -14 10 0 5 -13 25 -30 43 -16 19
-30 40 -30 45 0 19 -118 111 -183 144 -65 33 -223 69 -292 67 -22 -1 -62 -5
-90 -9z"/>
<path d="M316 1658 c-10 -6 -24 -24 -32 -42 -14 -30 -23 -46 -55 -96 -9 -14
-19 -42 -23 -62 -4 -20 -10 -38 -15 -40 -12 -5 -61 -257 -61 -314 1 -27 5 -67
10 -89 4 -22 15 -74 24 -116 8 -42 22 -92 30 -110 64 -149 68 -180 36 -272
-11 -31 -20 -64 -20 -73 0 -10 -7 -25 -15 -34 -10 -11 -18 -47 -22 -97 -5 -75
-4 -81 18 -102 60 -57 84 -59 209 -22 242 71 249 72 320 40 131 -60 210 -74
410 -73 161 0 181 2 255 26 44 15 118 46 164 70 69 36 86 49 93 73 12 44 3 58
-29 50 -16 -4 -30 -10 -33 -14 -9 -13 -102 -61 -118 -61 -8 0 -30 -9 -48 -21
-19 -11 -64 -25 -101 -30 -38 -5 -80 -14 -95 -20 -34 -14 -198 -6 -302 14 -44
9 -116 34 -163 56 -93 45 -111 48 -151 27 -15 -7 -54 -19 -87 -26 -33 -6 -70
-18 -82 -26 -11 -7 -50 -16 -86 -20 -58 -6 -66 -5 -76 13 -14 27 -3 119 21
163 10 19 18 45 18 57 0 12 9 48 21 79 25 65 22 89 -21 179 -61 128 -72 178
-77 347 -5 140 -3 165 16 230 24 82 97 254 119 280 29 35 -12 79 -52 56z"/>
<path d="M1867 1643 c-15 -15 -5 -55 37 -144 74 -159 88 -224 83 -401 -2 -116
-8 -170 -24 -224 -20 -72 -92 -226 -119 -255 -20 -23 -17 -57 7 -69 17 -9 25
-8 42 7 35 30 45 44 87 132 51 104 80 190 80 234 0 18 7 42 15 53 24 31 21
239 -5 295 -11 24 -20 59 -20 78 0 52 -50 170 -114 268 -20 31 -53 43 -69 26z"/>
</g>
</svg>
